<?xml version="1.0" encoding="utf-8"?>
<!-- Generator: Adobe Illustrator 24.0.1, SVG Export Plug-In . SVG Version: 6.00 Build 0)  -->
<svg version="1.1" xmlns="http://www.w3.org/2000/svg" xmlns:xlink="http://www.w3.org/1999/xlink" x="0px" y="0px"
	 viewBox="0 0 600 600" style="enable-background:new 0 0 600 600;" xml:space="preserve">
<style type="text/css">
	.st0{display:none;}
	.st1{display:inline;}
	.st2{fill:#24346B;}
	.st3{fill:#10CFC9;}
	.st4{fill:#66665C;}
	.st5{fill:#D0D0CE;}
	.st6{fill:#1D1D1B;}
	.st7{fill:#FFFFFF;}
</style>
<g id="Calque_1" class="st0">
	<g class="st1">
		<g>
			<path class="st2" d="M127.57,408.54h-15.98l-2.47,8.32h-8.5l14.35-42.57h9.04l14.53,42.57h-8.5L127.57,408.54z M125.46,401.61
				l-5.85-19.6l-5.91,19.6H125.46z"/>
			<path class="st2" d="M151.27,374.29h13.57c5.67,0.06,9.47,0.06,13.2,3.08c2.65,2.17,4.7,5.55,4.7,10.49
				c0,8.14-5.97,10.97-8.38,11.7l9.47,17.3h-9.1l-8.44-15.8h-7.11v15.8h-7.9V374.29z M159.17,381.17v13.32h2.77
				c2.71,0,3.74-0.06,5.25-0.12c1.75-0.06,7.48-0.36,7.48-6.57c0-0.91-0.06-4.04-3.38-5.73c-1.69-0.85-3.74-0.91-8.44-0.91H159.17z"
				/>
			<path class="st2" d="M233.1,404.99c-0.54,1.39-1.57,3.86-3.68,6.39c-3.01,3.5-7.78,6.57-14.71,6.57
				c-11.28,0-19.9-8.26-19.9-22.49c0-14.47,9.35-22.25,20.2-22.25c13.27,0,16.4,10.19,17.37,13.14l-7.96,2.11
				c-0.12-0.78-0.48-2.59-1.57-4.22c-0.9-1.33-3.26-3.74-7.66-3.74c-6.93,0-11.76,5.73-11.76,14.83c0,9.71,5.12,15.07,11.82,15.07
				c3.98,0,6.39-1.93,8.14-4.16c1.39-1.87,1.93-3.44,2.23-4.4L233.1,404.99z"/>
			<path class="st2" d="M280.43,374.29v42.57h-8.02v-19.35h-18.27v19.35h-7.96v-42.57h7.96v16.1h18.27v-16.1H280.43z"/>
			<path class="st2" d="M304.4,381.41v10.01h20.5v6.87h-20.5v11.39h23.94v7.18h-31.78v-42.57h30.27v7.12H304.4z"/>
			<path class="st2" d="M369.41,381.53h-11.76v35.33h-7.96v-35.33h-11.52v-7.24h31.23V381.53z"/>
			<path class="st2" d="M399.74,400.04v16.82h-7.84v-16.82l-14.23-25.75h8.98l9.22,17.67l9.34-17.67h8.86L399.74,400.04z"/>
			<path class="st2" d="M423.77,374.29h14.35c2.35,0,4.82,0,7.3,0.66c4.16,1.15,10.01,4.88,10.01,13.51
				c0,5.67-2.65,11.76-10.25,13.45c-2.35,0.54-4.58,0.54-7.18,0.54h-6.21v14.41h-8.02V374.29z M431.79,381.11v14.77h5.73
				c1.69,0,3.13,0,4.52-0.36c4.94-1.21,5.25-5.73,5.25-7.24c0-3.13-1.39-4.76-2.11-5.42c-1.99-1.69-4.77-1.75-7.36-1.75H431.79z"/>
			<path class="st2" d="M475.45,381.41v10.01h20.5v6.87h-20.5v11.39h23.94v7.18h-31.77v-42.57h30.27v7.12H475.45z"/>
		</g>
		<path class="st2" d="M380.83,178.33v87.81c0,19.97-10.76,38.53-28.09,48.46L300,344.74l-52.73-30.14
			c-17.33-9.93-28.09-28.49-28.09-48.46v-87.81l4.1-2.33c23.33-13.33,49.86-20.38,76.73-20.38c26.87,0,53.41,7.05,76.73,20.38
			L380.83,178.33z"/>
		<path class="st3" d="M300,224.6l-72.7-41.55v83.09c0,17.12,9.17,32.94,24.05,41.44l0.19,0.11v-27.7l24.24,13.85v27.69L300,335.38
			v-83.09l24.24-13.84v83.08l24.23-13.84l0.01-0.01v-82.8l24.23-13.85v-27.98L300,224.6z M275.77,266.14l-24.24-13.85V224.6
			l24.24,13.85V266.14z"/>
		<g>
			<path class="st2" d="M147.84,441.26c0.23,0.36,0.96,1.47,3,1.47c0.34,0,0.7-0.03,1.04-0.16c0.7-0.29,0.82-0.78,0.82-1.11
				c0-0.62-0.43-0.84-0.73-0.96c-0.22-0.08-0.25-0.1-1.12-0.3l-1.16-0.25c-0.62-0.15-0.92-0.22-1.22-0.34
				c-0.44-0.18-1.63-0.77-1.63-2.37c0-1.84,1.55-3.02,3.82-3.02c2.08,0,3.21,1.03,3.89,1.96l-1.48,1.11
				c-0.33-0.48-0.96-1.44-2.51-1.44c-0.97,0-1.82,0.44-1.82,1.18c0,0.82,0.9,0.99,1.78,1.15l1,0.22c1.3,0.27,3.14,0.81,3.14,2.88
				c0,2.22-2.06,3.11-4.11,3.11c-0.53,0-1.14-0.06-1.73-0.22c-0.64-0.19-1.78-0.66-2.51-1.84L147.84,441.26z"/>
			<path class="st2" d="M167.41,434.46v9.67h-1.77l0.16-7.95l-2.08,7.95h-1.63l-2.1-7.95l0.18,7.95h-1.77v-9.67h2.63l1.89,7.18
				l1.85-7.18H167.41z"/>
			<path class="st2" d="M176.35,442.25h-3.63l-0.56,1.89h-1.93l3.26-9.67h2.06l3.3,9.67h-1.93L176.35,442.25z M175.87,440.67
				l-1.33-4.45l-1.34,4.45H175.87z"/>
			<path class="st2" d="M181.73,434.46h3.08c1.29,0.01,2.15,0.01,3,0.7c0.6,0.49,1.07,1.26,1.07,2.39c0,1.85-1.36,2.49-1.9,2.66
				l2.15,3.93h-2.07l-1.92-3.59h-1.62v3.59h-1.8V434.46z M183.52,436.02v3.03h0.63c0.62,0,0.85-0.01,1.19-0.03
				c0.4-0.01,1.7-0.08,1.7-1.49c0-0.21-0.01-0.92-0.77-1.3c-0.38-0.19-0.85-0.21-1.92-0.21H183.52z"/>
			<path class="st2" d="M198.52,436.11h-2.67v8.03h-1.81v-8.03h-2.62v-1.64h7.1V436.11z"/>
			<path class="st2" d="M215.02,441.44c-0.12,0.31-0.36,0.88-0.84,1.45c-0.69,0.79-1.77,1.49-3.34,1.49c-2.56,0-4.52-1.88-4.52-5.11
				c0-3.29,2.12-5.06,4.59-5.06c3.02,0,3.73,2.32,3.95,2.99l-1.81,0.48c-0.03-0.18-0.11-0.59-0.36-0.96
				c-0.21-0.3-0.74-0.85-1.74-0.85c-1.58,0-2.67,1.3-2.67,3.37c0,2.21,1.16,3.43,2.69,3.43c0.9,0,1.45-0.44,1.85-0.95
				c0.31-0.42,0.44-0.78,0.51-1L215.02,441.44z"/>
			<path class="st2" d="M222.44,444.38c-1.22,0-2.34-0.34-3.33-1.48c-0.96-1.11-1.29-2.37-1.29-3.59c0-2.96,2-5.1,4.65-5.1
				c2.4,0,4.64,1.78,4.63,5.08C227.08,442.07,225.41,444.38,222.44,444.38z M222.45,435.88c-1.66,0-2.77,1.34-2.77,3.36
				c0,2.18,1.21,3.48,2.81,3.48c1.21,0,2.75-0.88,2.8-3.21C225.33,437.62,224.36,435.88,222.45,435.88z"/>
			<path class="st2" d="M236.18,434.46h1.78v9.67h-1.58l-4.23-6.78l0.11,6.78h-1.77v-9.67h1.63l4.28,6.84L236.18,434.46z"/>
			<path class="st2" d="M248.12,436.11h-2.67v8.03h-1.81v-8.03h-2.62v-1.64h7.1V436.11z"/>
			<path class="st2" d="M251.16,434.46h3.08c1.29,0.01,2.15,0.01,3,0.7c0.6,0.49,1.07,1.26,1.07,2.39c0,1.85-1.36,2.49-1.9,2.66
				l2.15,3.93h-2.07l-1.92-3.59h-1.62v3.59h-1.8V434.46z M252.95,436.02v3.03h0.63c0.62,0,0.85-0.01,1.19-0.03
				c0.4-0.01,1.7-0.08,1.7-1.49c0-0.21-0.01-0.92-0.77-1.3c-0.38-0.19-0.85-0.21-1.92-0.21H252.95z"/>
			<path class="st2" d="M266.76,442.25h-3.63l-0.56,1.89h-1.93l3.26-9.67h2.06l3.3,9.67h-1.93L266.76,442.25z M266.28,440.67
				l-1.33-4.45l-1.34,4.45H266.28z"/>
			<path class="st2" d="M279.97,441.44c-0.12,0.31-0.36,0.88-0.83,1.45c-0.69,0.79-1.77,1.49-3.34,1.49c-2.56,0-4.52-1.88-4.52-5.11
				c0-3.29,2.12-5.06,4.59-5.06c3.01,0,3.73,2.32,3.95,2.99l-1.81,0.48c-0.03-0.18-0.11-0.59-0.36-0.96
				c-0.21-0.3-0.74-0.85-1.74-0.85c-1.58,0-2.67,1.3-2.67,3.37c0,2.21,1.16,3.43,2.69,3.43c0.9,0,1.45-0.44,1.85-0.95
				c0.31-0.42,0.44-0.78,0.51-1L279.97,441.44z"/>
			<path class="st2" d="M288.97,436.11h-2.67v8.03h-1.81v-8.03h-2.62v-1.64h7.1V436.11z"/>
			<path class="st2" d="M292.73,441.26c0.23,0.36,0.96,1.47,3,1.47c0.34,0,0.7-0.03,1.04-0.16c0.7-0.29,0.82-0.78,0.82-1.11
				c0-0.62-0.42-0.84-0.73-0.96c-0.22-0.08-0.25-0.1-1.12-0.3l-1.17-0.25c-0.62-0.15-0.92-0.22-1.22-0.34
				c-0.44-0.18-1.63-0.77-1.63-2.37c0-1.84,1.55-3.02,3.82-3.02c2.08,0,3.21,1.03,3.89,1.96l-1.48,1.11
				c-0.33-0.48-0.96-1.44-2.51-1.44c-0.97,0-1.82,0.44-1.82,1.18c0,0.82,0.9,0.99,1.78,1.15l1,0.22c1.3,0.27,3.14,0.81,3.14,2.88
				c0,2.22-2.05,3.11-4.11,3.11c-0.53,0-1.14-0.06-1.73-0.22c-0.64-0.19-1.78-0.66-2.51-1.84L292.73,441.26z"/>
			<path class="st2" d="M315.93,434.46v6.1c-0.01,1.1-0.01,2-1.04,2.88c-0.99,0.86-2.26,0.95-2.92,0.95c-0.59,0-1.16-0.07-1.71-0.26
				c-1.15-0.4-1.77-1.23-1.99-1.96c-0.12-0.42-0.12-0.73-0.14-1.93v-5.77h1.81v5.95c0,0.41-0.01,0.81,0.12,1.18
				c0.37,0.93,1.38,1.04,1.96,1.04c0.29,0,1.01-0.01,1.55-0.48c0.53-0.48,0.53-1.03,0.53-1.83v-5.85H315.93z"/>
			<path class="st2" d="M326.05,434.46h1.78v9.67h-1.58l-4.23-6.78l0.11,6.78h-1.77v-9.67h1.63l4.27,6.84L326.05,434.46z"/>
			<path class="st2" d="M332.12,434.46h3.47c0.84,0.01,1.85,0.03,2.86,0.75c1.62,1.14,1.86,3.08,1.86,4.17
				c0,1.66-0.56,3.34-1.99,4.16c-0.96,0.56-1.97,0.58-3.11,0.59h-3.1V434.46z M333.93,436.11v6.4h0.77c1.37,0,1.85-0.07,2.26-0.22
				c0.7-0.27,1.44-0.88,1.44-2.89c0-0.9-0.14-2.38-1.48-3.03c-0.52-0.23-0.81-0.25-2.03-0.26H333.93z"/>
			<path class="st2" d="M345.34,436.08v2.27H350v1.56h-4.66v2.59h5.44v1.63h-7.22v-9.67h6.88v1.62H345.34z"/>
			<path class="st2" d="M354.38,434.46h3.08c1.29,0.01,2.15,0.01,3,0.7c0.6,0.49,1.07,1.26,1.07,2.39c0,1.85-1.36,2.49-1.9,2.66
				l2.15,3.93h-2.07l-1.92-3.59h-1.62v3.59h-1.8V434.46z M356.18,436.02v3.03h0.63c0.62,0,0.85-0.01,1.19-0.03
				c0.4-0.01,1.7-0.08,1.7-1.49c0-0.21-0.01-0.92-0.77-1.3c-0.38-0.19-0.85-0.21-1.92-0.21H356.18z"/>
			<path class="st2" d="M378.33,441.44c-0.12,0.31-0.36,0.88-0.84,1.45c-0.69,0.79-1.77,1.49-3.34,1.49c-2.56,0-4.52-1.88-4.52-5.11
				c0-3.29,2.12-5.06,4.59-5.06c3.02,0,3.73,2.32,3.95,2.99l-1.81,0.48c-0.03-0.18-0.11-0.59-0.36-0.96
				c-0.21-0.3-0.74-0.85-1.74-0.85c-1.58,0-2.67,1.3-2.67,3.37c0,2.21,1.17,3.43,2.69,3.43c0.9,0,1.45-0.44,1.85-0.95
				c0.31-0.42,0.44-0.78,0.51-1L378.33,441.44z"/>
			<path class="st2" d="M385.75,444.38c-1.22,0-2.34-0.34-3.33-1.48c-0.96-1.11-1.29-2.37-1.29-3.59c0-2.96,2-5.1,4.65-5.1
				c2.4,0,4.64,1.78,4.63,5.08C390.39,442.07,388.72,444.38,385.75,444.38z M385.76,435.88c-1.66,0-2.77,1.34-2.77,3.36
				c0,2.18,1.21,3.48,2.81,3.48c1.21,0,2.75-0.88,2.8-3.21C388.64,437.62,387.67,435.88,385.76,435.88z"/>
			<path class="st2" d="M399.49,434.46h1.78v9.67h-1.58l-4.23-6.78l0.11,6.78h-1.77v-9.67h1.63l4.27,6.84L399.49,434.46z"/>
			<path class="st2" d="M411.43,436.11h-2.67v8.03h-1.81v-8.03h-2.62v-1.64h7.1V436.11z"/>
			<path class="st2" d="M414.47,434.46h3.08c1.29,0.01,2.15,0.01,3,0.7c0.6,0.49,1.07,1.26,1.07,2.39c0,1.85-1.36,2.49-1.9,2.66
				l2.15,3.93h-2.07l-1.92-3.59h-1.62v3.59h-1.8V434.46z M416.26,436.02v3.03h0.63c0.62,0,0.85-0.01,1.19-0.03
				c0.4-0.01,1.7-0.08,1.7-1.49c0-0.21-0.01-0.92-0.77-1.3c-0.38-0.19-0.85-0.21-1.92-0.21H416.26z"/>
			<path class="st2" d="M429.13,444.38c-1.22,0-2.34-0.34-3.33-1.48c-0.96-1.11-1.29-2.37-1.29-3.59c0-2.96,2-5.1,4.64-5.1
				c2.4,0,4.64,1.78,4.63,5.08C433.77,442.07,432.1,444.38,429.13,444.38z M429.14,435.88c-1.66,0-2.77,1.34-2.77,3.36
				c0,2.18,1.21,3.48,2.81,3.48c1.21,0,2.75-0.88,2.8-3.21C432.02,437.62,431.04,435.88,429.14,435.88z"/>
			<path class="st2" d="M439,442.49h3.84v1.64h-5.66v-9.69H439V442.49z"/>
		</g>
	</g>
</g>
<g id="Calque_2" class="st0">
	<g class="st1">
		<g>
			<path class="st4" d="M127.57,408.54h-15.98l-2.47,8.32h-8.5l14.35-42.57h9.04l14.53,42.57h-8.5L127.57,408.54z M125.46,401.61
				l-5.85-19.6l-5.91,19.6H125.46z"/>
			<path class="st4" d="M151.27,374.29h13.57c5.67,0.06,9.47,0.06,13.2,3.08c2.65,2.17,4.7,5.55,4.7,10.49
				c0,8.14-5.97,10.97-8.38,11.7l9.47,17.3h-9.1l-8.44-15.8h-7.11v15.8h-7.9V374.29z M159.17,381.17v13.32h2.77
				c2.71,0,3.74-0.06,5.25-0.12c1.75-0.06,7.48-0.36,7.48-6.57c0-0.91-0.06-4.04-3.38-5.73c-1.69-0.85-3.74-0.91-8.44-0.91H159.17z"
				/>
			<path class="st4" d="M233.1,404.99c-0.54,1.39-1.57,3.86-3.68,6.39c-3.01,3.5-7.78,6.57-14.71,6.57
				c-11.28,0-19.9-8.26-19.9-22.49c0-14.47,9.35-22.25,20.2-22.25c13.27,0,16.4,10.19,17.37,13.14l-7.96,2.11
				c-0.12-0.78-0.48-2.59-1.57-4.22c-0.9-1.33-3.26-3.74-7.66-3.74c-6.93,0-11.76,5.73-11.76,14.83c0,9.71,5.12,15.07,11.82,15.07
				c3.98,0,6.39-1.93,8.14-4.16c1.39-1.87,1.93-3.44,2.23-4.4L233.1,404.99z"/>
			<path class="st4" d="M280.43,374.29v42.57h-8.02v-19.35h-18.27v19.35h-7.96v-42.57h7.96v16.1h18.27v-16.1H280.43z"/>
			<path class="st4" d="M304.4,381.41v10.01h20.5v6.87h-20.5v11.39h23.94v7.18h-31.78v-42.57h30.27v7.12H304.4z"/>
			<path class="st4" d="M369.41,381.53h-11.76v35.33h-7.96v-35.33h-11.52v-7.24h31.23V381.53z"/>
			<path class="st4" d="M399.74,400.04v16.82h-7.84v-16.82l-14.23-25.75h8.98l9.22,17.67l9.34-17.67h8.86L399.74,400.04z"/>
			<path class="st4" d="M423.77,374.29h14.35c2.35,0,4.82,0,7.3,0.66c4.16,1.15,10.01,4.88,10.01,13.51
				c0,5.67-2.65,11.76-10.25,13.45c-2.35,0.54-4.58,0.54-7.18,0.54h-6.21v14.41h-8.02V374.29z M431.79,381.11v14.77h5.73
				c1.69,0,3.13,0,4.52-0.36c4.94-1.21,5.25-5.73,5.25-7.24c0-3.13-1.39-4.76-2.11-5.42c-1.99-1.69-4.77-1.75-7.36-1.75H431.79z"/>
			<path class="st4" d="M475.45,381.41v10.01h20.5v6.87h-20.5v11.39h23.94v7.18h-31.77v-42.57h30.27v7.12H475.45z"/>
		</g>
		<g>
			<path class="st5" d="M300,224.6l-72.7-41.55v83.09c0,17.12,9.17,32.94,24.05,41.44l0.19,0.11v-27.7l24.24,13.85v27.69L300,335.38
				v-83.09l24.24-13.84v83.08l24.23-13.84l0.01-0.01v-82.8l24.23-13.85v-27.98L300,224.6z M275.77,266.14l-24.24-13.85V224.6
				l24.24,13.85V266.14z"/>
			<polygon class="st4" points="251.53,224.59 275.77,238.44 275.77,266.14 251.53,252.29 			"/>
			<path class="st4" d="M376.73,175.99c-23.32-13.33-49.86-20.38-76.73-20.38c-26.87,0-53.4,7.05-76.73,20.38l-4.1,2.34v87.81
				c0,19.97,10.77,38.53,28.1,48.46L300,344.73l52.73-30.13c17.33-9.93,28.1-28.49,28.1-48.46v-87.81L376.73,175.99z M372.71,211.03
				l-24.23,13.85v82.8l-0.01,0.01l-24.23,13.84v-83.09L300,252.29v83.09l-24.23-13.85v-27.69l-24.24-13.85v27.7l-0.18-0.11
				c-14.88-8.5-24.05-24.32-24.05-41.44v-83.1l72.7,41.55l72.71-41.55V211.03z"/>
		</g>
		<g>
			<path class="st4" d="M147.84,441.26c0.23,0.36,0.96,1.47,3,1.47c0.34,0,0.7-0.03,1.04-0.16c0.7-0.29,0.82-0.78,0.82-1.11
				c0-0.62-0.43-0.84-0.73-0.96c-0.22-0.08-0.25-0.1-1.12-0.3l-1.16-0.25c-0.62-0.15-0.92-0.22-1.22-0.34
				c-0.44-0.18-1.63-0.77-1.63-2.37c0-1.84,1.55-3.02,3.82-3.02c2.08,0,3.21,1.03,3.89,1.96l-1.48,1.11
				c-0.33-0.48-0.96-1.44-2.51-1.44c-0.97,0-1.82,0.44-1.82,1.18c0,0.82,0.9,0.99,1.78,1.15l1,0.22c1.3,0.27,3.14,0.81,3.14,2.88
				c0,2.22-2.06,3.11-4.11,3.11c-0.53,0-1.14-0.06-1.73-0.22c-0.64-0.19-1.78-0.66-2.51-1.84L147.84,441.26z"/>
			<path class="st4" d="M167.41,434.46v9.67h-1.77l0.16-7.95l-2.08,7.95h-1.63l-2.1-7.95l0.18,7.95h-1.77v-9.67h2.63l1.89,7.18
				l1.85-7.18H167.41z"/>
			<path class="st4" d="M176.35,442.25h-3.63l-0.56,1.89h-1.93l3.26-9.67h2.06l3.3,9.67h-1.93L176.35,442.25z M175.87,440.67
				l-1.33-4.45l-1.34,4.45H175.87z"/>
			<path class="st4" d="M181.73,434.46h3.08c1.29,0.01,2.15,0.01,3,0.7c0.6,0.49,1.07,1.26,1.07,2.39c0,1.85-1.36,2.49-1.9,2.66
				l2.15,3.93h-2.07l-1.92-3.59h-1.62v3.59h-1.8V434.46z M183.52,436.03v3.03h0.63c0.62,0,0.85-0.01,1.19-0.03
				c0.4-0.01,1.7-0.08,1.7-1.49c0-0.21-0.01-0.92-0.77-1.3c-0.38-0.19-0.85-0.21-1.92-0.21H183.52z"/>
			<path class="st4" d="M198.52,436.11h-2.67v8.03h-1.81v-8.03h-2.62v-1.64h7.1V436.11z"/>
			<path class="st4" d="M215.02,441.44c-0.12,0.31-0.36,0.88-0.84,1.45c-0.69,0.79-1.77,1.49-3.34,1.49c-2.56,0-4.52-1.88-4.52-5.11
				c0-3.29,2.12-5.06,4.59-5.06c3.02,0,3.73,2.32,3.95,2.99l-1.81,0.48c-0.03-0.18-0.11-0.59-0.36-0.96
				c-0.21-0.3-0.74-0.85-1.74-0.85c-1.58,0-2.67,1.3-2.67,3.37c0,2.21,1.16,3.43,2.69,3.43c0.9,0,1.45-0.44,1.85-0.95
				c0.31-0.42,0.44-0.78,0.51-1L215.02,441.44z"/>
			<path class="st4" d="M222.44,444.39c-1.22,0-2.34-0.34-3.33-1.48c-0.96-1.11-1.29-2.37-1.29-3.59c0-2.96,2-5.1,4.65-5.1
				c2.4,0,4.64,1.78,4.63,5.08C227.08,442.07,225.41,444.39,222.44,444.39z M222.45,435.88c-1.66,0-2.77,1.34-2.77,3.36
				c0,2.18,1.21,3.48,2.81,3.48c1.21,0,2.75-0.88,2.8-3.21C225.33,437.62,224.36,435.88,222.45,435.88z"/>
			<path class="st4" d="M236.18,434.46h1.78v9.67h-1.58l-4.23-6.78l0.11,6.78h-1.77v-9.67h1.63l4.28,6.84L236.18,434.46z"/>
			<path class="st4" d="M248.12,436.11h-2.67v8.03h-1.81v-8.03h-2.62v-1.64h7.1V436.11z"/>
			<path class="st4" d="M251.16,434.46h3.08c1.29,0.01,2.15,0.01,3,0.7c0.6,0.49,1.07,1.26,1.07,2.39c0,1.85-1.36,2.49-1.9,2.66
				l2.15,3.93h-2.07l-1.92-3.59h-1.62v3.59h-1.8V434.46z M252.95,436.03v3.03h0.63c0.62,0,0.85-0.01,1.19-0.03
				c0.4-0.01,1.7-0.08,1.7-1.49c0-0.21-0.01-0.92-0.77-1.3c-0.38-0.19-0.85-0.21-1.92-0.21H252.95z"/>
			<path class="st4" d="M266.76,442.25h-3.63l-0.56,1.89h-1.93l3.26-9.67h2.06l3.3,9.67h-1.93L266.76,442.25z M266.28,440.67
				l-1.33-4.45l-1.34,4.45H266.28z"/>
			<path class="st4" d="M279.97,441.44c-0.12,0.31-0.36,0.88-0.83,1.45c-0.69,0.79-1.77,1.49-3.34,1.49c-2.56,0-4.52-1.88-4.52-5.11
				c0-3.29,2.12-5.06,4.59-5.06c3.01,0,3.73,2.32,3.95,2.99l-1.81,0.48c-0.03-0.18-0.11-0.59-0.36-0.96
				c-0.21-0.3-0.74-0.85-1.74-0.85c-1.58,0-2.67,1.3-2.67,3.37c0,2.21,1.16,3.43,2.69,3.43c0.9,0,1.45-0.44,1.85-0.95
				c0.31-0.42,0.44-0.78,0.51-1L279.97,441.44z"/>
			<path class="st4" d="M288.97,436.11h-2.67v8.03h-1.81v-8.03h-2.62v-1.64h7.1V436.11z"/>
			<path class="st4" d="M292.73,441.26c0.23,0.36,0.96,1.47,3,1.47c0.34,0,0.7-0.03,1.04-0.16c0.7-0.29,0.82-0.78,0.82-1.11
				c0-0.62-0.42-0.84-0.73-0.96c-0.22-0.08-0.25-0.1-1.12-0.3l-1.17-0.25c-0.62-0.15-0.92-0.22-1.22-0.34
				c-0.44-0.18-1.63-0.77-1.63-2.37c0-1.84,1.55-3.02,3.82-3.02c2.08,0,3.21,1.03,3.89,1.96l-1.48,1.11
				c-0.33-0.48-0.96-1.44-2.51-1.44c-0.97,0-1.82,0.44-1.82,1.18c0,0.82,0.9,0.99,1.78,1.15l1,0.22c1.3,0.27,3.14,0.81,3.14,2.88
				c0,2.22-2.05,3.11-4.11,3.11c-0.53,0-1.14-0.06-1.73-0.22c-0.64-0.19-1.78-0.66-2.51-1.84L292.73,441.26z"/>
			<path class="st4" d="M315.93,434.46v6.1c-0.01,1.1-0.01,2-1.04,2.88c-0.99,0.86-2.26,0.95-2.92,0.95c-0.59,0-1.16-0.07-1.71-0.26
				c-1.15-0.4-1.77-1.23-1.99-1.96c-0.12-0.42-0.12-0.73-0.14-1.93v-5.77h1.81v5.95c0,0.41-0.01,0.81,0.12,1.18
				c0.37,0.93,1.38,1.04,1.96,1.04c0.29,0,1.01-0.01,1.55-0.48c0.53-0.48,0.53-1.03,0.53-1.83v-5.85H315.93z"/>
			<path class="st4" d="M326.05,434.46h1.78v9.67h-1.58l-4.23-6.78l0.11,6.78h-1.77v-9.67h1.63l4.27,6.84L326.05,434.46z"/>
			<path class="st4" d="M332.12,434.46h3.47c0.84,0.01,1.85,0.03,2.86,0.75c1.62,1.14,1.86,3.08,1.86,4.17
				c0,1.66-0.56,3.34-1.99,4.16c-0.96,0.56-1.97,0.58-3.11,0.59h-3.1V434.46z M333.93,436.11v6.4h0.77c1.37,0,1.85-0.07,2.26-0.22
				c0.7-0.27,1.44-0.88,1.44-2.89c0-0.9-0.14-2.38-1.48-3.03c-0.52-0.23-0.81-0.25-2.03-0.26H333.93z"/>
			<path class="st4" d="M345.34,436.08v2.27H350v1.56h-4.66v2.59h5.44v1.63h-7.22v-9.67h6.88v1.62H345.34z"/>
			<path class="st4" d="M354.38,434.46h3.08c1.29,0.01,2.15,0.01,3,0.7c0.6,0.49,1.07,1.26,1.07,2.39c0,1.85-1.36,2.49-1.9,2.66
				l2.15,3.93h-2.07l-1.92-3.59h-1.62v3.59h-1.8V434.46z M356.18,436.03v3.03h0.63c0.62,0,0.85-0.01,1.19-0.03
				c0.4-0.01,1.7-0.08,1.7-1.49c0-0.21-0.01-0.92-0.77-1.3c-0.38-0.19-0.85-0.21-1.92-0.21H356.18z"/>
			<path class="st4" d="M378.33,441.44c-0.12,0.31-0.36,0.88-0.84,1.45c-0.69,0.79-1.77,1.49-3.34,1.49c-2.56,0-4.52-1.88-4.52-5.11
				c0-3.29,2.12-5.06,4.59-5.06c3.02,0,3.73,2.32,3.95,2.99l-1.81,0.48c-0.03-0.18-0.11-0.59-0.36-0.96
				c-0.21-0.3-0.74-0.85-1.74-0.85c-1.58,0-2.67,1.3-2.67,3.37c0,2.21,1.17,3.43,2.69,3.43c0.9,0,1.45-0.44,1.85-0.95
				c0.31-0.42,0.44-0.78,0.51-1L378.33,441.44z"/>
			<path class="st4" d="M385.75,444.39c-1.22,0-2.34-0.34-3.33-1.48c-0.96-1.11-1.29-2.37-1.29-3.59c0-2.96,2-5.1,4.65-5.1
				c2.4,0,4.64,1.78,4.63,5.08C390.39,442.07,388.72,444.39,385.75,444.39z M385.76,435.88c-1.66,0-2.77,1.34-2.77,3.36
				c0,2.18,1.21,3.48,2.81,3.48c1.21,0,2.75-0.88,2.8-3.21C388.64,437.62,387.67,435.88,385.76,435.88z"/>
			<path class="st4" d="M399.49,434.46h1.78v9.67h-1.58l-4.23-6.78l0.11,6.78h-1.77v-9.67h1.63l4.27,6.84L399.49,434.46z"/>
			<path class="st4" d="M411.43,436.11h-2.67v8.03h-1.81v-8.03h-2.62v-1.64h7.1V436.11z"/>
			<path class="st4" d="M414.47,434.46h3.08c1.29,0.01,2.15,0.01,3,0.7c0.6,0.49,1.07,1.26,1.07,2.39c0,1.85-1.36,2.49-1.9,2.66
				l2.15,3.93h-2.07l-1.92-3.59h-1.62v3.59h-1.8V434.46z M416.26,436.03v3.03h0.63c0.62,0,0.85-0.01,1.19-0.03
				c0.4-0.01,1.7-0.08,1.7-1.49c0-0.21-0.01-0.92-0.77-1.3c-0.38-0.19-0.85-0.21-1.92-0.21H416.26z"/>
			<path class="st4" d="M429.13,444.39c-1.22,0-2.34-0.34-3.33-1.48c-0.96-1.11-1.29-2.37-1.29-3.59c0-2.96,2-5.1,4.64-5.1
				c2.4,0,4.64,1.78,4.63,5.08C433.77,442.07,432.1,444.39,429.13,444.39z M429.14,435.88c-1.66,0-2.77,1.34-2.77,3.36
				c0,2.18,1.21,3.48,2.81,3.48c1.21,0,2.75-0.88,2.8-3.21C432.02,437.62,431.04,435.88,429.14,435.88z"/>
			<path class="st4" d="M439,442.49h3.84v1.64h-5.66v-9.69H439V442.49z"/>
		</g>
	</g>
</g>
<g id="Calque_3" class="st0">
	<g class="st1">
		<g>
			<path class="st6" d="M127.57,408.54h-15.98l-2.47,8.32h-8.5l14.35-42.57h9.04l14.53,42.57h-8.5L127.57,408.54z M125.46,401.61
				l-5.85-19.6l-5.91,19.6H125.46z"/>
			<path class="st6" d="M151.27,374.29h13.57c5.67,0.06,9.47,0.06,13.2,3.08c2.65,2.17,4.7,5.55,4.7,10.49
				c0,8.14-5.97,10.97-8.38,11.7l9.47,17.3h-9.1l-8.44-15.8h-7.11v15.8h-7.9V374.29z M159.17,381.17v13.32h2.77
				c2.71,0,3.74-0.06,5.25-0.12c1.75-0.06,7.48-0.36,7.48-6.57c0-0.91-0.06-4.04-3.38-5.73c-1.69-0.85-3.74-0.91-8.44-0.91H159.17z"
				/>
			<path class="st6" d="M233.1,404.98c-0.54,1.39-1.57,3.86-3.68,6.39c-3.01,3.5-7.78,6.57-14.71,6.57
				c-11.28,0-19.9-8.26-19.9-22.49c0-14.47,9.35-22.25,20.2-22.25c13.27,0,16.4,10.19,17.37,13.14l-7.96,2.11
				c-0.12-0.78-0.48-2.59-1.57-4.22c-0.9-1.33-3.26-3.74-7.66-3.74c-6.93,0-11.76,5.73-11.76,14.83c0,9.71,5.12,15.07,11.82,15.07
				c3.98,0,6.39-1.93,8.14-4.16c1.39-1.87,1.93-3.44,2.23-4.4L233.1,404.98z"/>
			<path class="st6" d="M280.43,374.29v42.57h-8.02v-19.35h-18.27v19.35h-7.96v-42.57h7.96v16.1h18.27v-16.1H280.43z"/>
			<path class="st6" d="M304.4,381.41v10.01h20.5v6.87h-20.5v11.39h23.94v7.18h-31.78v-42.57h30.27v7.12H304.4z"/>
			<path class="st6" d="M369.41,381.53h-11.76v35.33h-7.96v-35.33h-11.52v-7.24h31.23V381.53z"/>
			<path class="st6" d="M399.74,400.04v16.82h-7.84v-16.82l-14.23-25.75h8.98l9.22,17.67l9.34-17.67h8.86L399.74,400.04z"/>
			<path class="st6" d="M423.77,374.29h14.35c2.35,0,4.82,0,7.3,0.66c4.16,1.15,10.01,4.88,10.01,13.51
				c0,5.67-2.65,11.76-10.25,13.45c-2.35,0.54-4.58,0.54-7.18,0.54h-6.21v14.41h-8.02V374.29z M431.79,381.11v14.77h5.73
				c1.69,0,3.13,0,4.52-0.36c4.94-1.21,5.25-5.73,5.25-7.24c0-3.13-1.39-4.76-2.11-5.42c-1.99-1.69-4.77-1.75-7.36-1.75H431.79z"/>
			<path class="st6" d="M475.45,381.41v10.01h20.5v6.87h-20.5v11.39h23.94v7.18h-31.77v-42.57h30.27v7.12H475.45z"/>
		</g>
		<g>
			<path class="st7" d="M300,224.59l-72.7-41.55v83.09c0,17.12,9.17,32.94,24.05,41.44l0.19,0.11v-27.7l24.24,13.85v27.69
				L300,335.38v-83.09l24.24-13.84v83.08l24.23-13.84l0.01-0.01v-82.8l24.23-13.85v-27.98L300,224.59z M275.77,266.14l-24.24-13.85
				v-27.69l24.24,13.85V266.14z"/>
			<polygon class="st6" points="251.53,224.6 275.77,238.45 275.77,266.14 251.53,252.29 			"/>
			<path class="st6" d="M376.73,176c-23.32-13.33-49.86-20.38-76.73-20.38c-26.87,0-53.4,7.05-76.73,20.38l-4.1,2.33v87.82
				c0,19.97,10.77,38.53,28.1,48.45L300,344.74l52.73-30.14c17.33-9.92,28.1-28.48,28.1-48.45v-87.82L376.73,176z M372.71,211.03
				l-24.23,13.85v82.8l-0.01,0.01l-24.23,13.84v-83.08L300,252.29v83.09l-24.23-13.85v-27.69l-24.24-13.85v27.7l-0.18-0.11
				c-14.88-8.5-24.05-24.31-24.05-41.44v-83.09L300,224.6l72.71-41.55V211.03z"/>
		</g>
		<g>
			<path class="st6" d="M147.84,441.26c0.23,0.36,0.96,1.47,3,1.47c0.34,0,0.7-0.03,1.04-0.16c0.7-0.29,0.82-0.78,0.82-1.11
				c0-0.62-0.43-0.84-0.73-0.96c-0.22-0.08-0.25-0.1-1.12-0.3l-1.16-0.25c-0.62-0.15-0.92-0.22-1.22-0.34
				c-0.44-0.18-1.63-0.77-1.63-2.37c0-1.84,1.55-3.02,3.82-3.02c2.08,0,3.21,1.03,3.89,1.96l-1.48,1.11
				c-0.33-0.48-0.96-1.44-2.51-1.44c-0.97,0-1.82,0.44-1.82,1.18c0,0.82,0.9,0.99,1.78,1.15l1,0.22c1.3,0.27,3.14,0.81,3.14,2.88
				c0,2.22-2.06,3.11-4.11,3.11c-0.53,0-1.14-0.06-1.73-0.22c-0.64-0.19-1.78-0.66-2.51-1.84L147.84,441.26z"/>
			<path class="st6" d="M167.41,434.46v9.67h-1.77l0.16-7.95l-2.08,7.95h-1.63l-2.1-7.95l0.18,7.95h-1.77v-9.67h2.63l1.89,7.18
				l1.85-7.18H167.41z"/>
			<path class="st6" d="M176.35,442.25h-3.63l-0.56,1.89h-1.93l3.26-9.67h2.06l3.3,9.67h-1.93L176.35,442.25z M175.87,440.67
				l-1.33-4.45l-1.34,4.45H175.87z"/>
			<path class="st6" d="M181.73,434.46h3.08c1.29,0.01,2.15,0.01,3,0.7c0.6,0.49,1.07,1.26,1.07,2.39c0,1.85-1.36,2.49-1.9,2.66
				l2.15,3.93h-2.07l-1.92-3.59h-1.62v3.59h-1.8V434.46z M183.52,436.02v3.03h0.63c0.62,0,0.85-0.01,1.19-0.03
				c0.4-0.01,1.7-0.08,1.7-1.49c0-0.21-0.01-0.92-0.77-1.3c-0.38-0.19-0.85-0.21-1.92-0.21H183.52z"/>
			<path class="st6" d="M198.52,436.11h-2.67v8.03h-1.81v-8.03h-2.62v-1.64h7.1V436.11z"/>
			<path class="st6" d="M215.02,441.44c-0.12,0.31-0.36,0.88-0.84,1.45c-0.69,0.79-1.77,1.49-3.34,1.49c-2.56,0-4.52-1.88-4.52-5.11
				c0-3.29,2.12-5.06,4.59-5.06c3.02,0,3.73,2.32,3.95,2.99l-1.81,0.48c-0.03-0.18-0.11-0.59-0.36-0.96
				c-0.21-0.3-0.74-0.85-1.74-0.85c-1.58,0-2.67,1.3-2.67,3.37c0,2.21,1.16,3.43,2.69,3.43c0.9,0,1.45-0.44,1.85-0.95
				c0.31-0.42,0.44-0.78,0.51-1L215.02,441.44z"/>
			<path class="st6" d="M222.44,444.38c-1.22,0-2.34-0.34-3.33-1.48c-0.96-1.11-1.29-2.37-1.29-3.59c0-2.96,2-5.1,4.65-5.1
				c2.4,0,4.64,1.78,4.63,5.08C227.08,442.07,225.41,444.38,222.44,444.38z M222.45,435.87c-1.66,0-2.77,1.34-2.77,3.36
				c0,2.18,1.21,3.48,2.81,3.48c1.21,0,2.75-0.88,2.8-3.21C225.33,437.61,224.36,435.87,222.45,435.87z"/>
			<path class="st6" d="M236.18,434.46h1.78v9.67h-1.58l-4.23-6.78l0.11,6.78h-1.77v-9.67h1.63l4.28,6.84L236.18,434.46z"/>
			<path class="st6" d="M248.12,436.11h-2.67v8.03h-1.81v-8.03h-2.62v-1.64h7.1V436.11z"/>
			<path class="st6" d="M251.16,434.46h3.08c1.29,0.01,2.15,0.01,3,0.7c0.6,0.49,1.07,1.26,1.07,2.39c0,1.85-1.36,2.49-1.9,2.66
				l2.15,3.93h-2.07l-1.92-3.59h-1.62v3.59h-1.8V434.46z M252.95,436.02v3.03h0.63c0.62,0,0.85-0.01,1.19-0.03
				c0.4-0.01,1.7-0.08,1.7-1.49c0-0.21-0.01-0.92-0.77-1.3c-0.38-0.19-0.85-0.21-1.92-0.21H252.95z"/>
			<path class="st6" d="M266.76,442.25h-3.63l-0.56,1.89h-1.93l3.26-9.67h2.06l3.3,9.67h-1.93L266.76,442.25z M266.28,440.67
				l-1.33-4.45l-1.34,4.45H266.28z"/>
			<path class="st6" d="M279.97,441.44c-0.12,0.31-0.36,0.88-0.83,1.45c-0.69,0.79-1.77,1.49-3.34,1.49c-2.56,0-4.52-1.88-4.52-5.11
				c0-3.29,2.12-5.06,4.59-5.06c3.01,0,3.73,2.32,3.95,2.99l-1.81,0.48c-0.03-0.18-0.11-0.59-0.36-0.96
				c-0.21-0.3-0.74-0.85-1.74-0.85c-1.58,0-2.67,1.3-2.67,3.37c0,2.21,1.16,3.43,2.69,3.43c0.9,0,1.45-0.44,1.85-0.95
				c0.31-0.42,0.44-0.78,0.51-1L279.97,441.44z"/>
			<path class="st6" d="M288.97,436.11h-2.67v8.03h-1.81v-8.03h-2.62v-1.64h7.1V436.11z"/>
			<path class="st6" d="M292.73,441.26c0.23,0.36,0.96,1.47,3,1.47c0.34,0,0.7-0.03,1.04-0.16c0.7-0.29,0.82-0.78,0.82-1.11
				c0-0.62-0.42-0.84-0.73-0.96c-0.22-0.08-0.25-0.1-1.12-0.3l-1.17-0.25c-0.62-0.15-0.92-0.22-1.22-0.34
				c-0.44-0.18-1.63-0.77-1.63-2.37c0-1.84,1.55-3.02,3.82-3.02c2.08,0,3.21,1.03,3.89,1.96l-1.48,1.11
				c-0.33-0.48-0.96-1.44-2.51-1.44c-0.97,0-1.82,0.44-1.82,1.18c0,0.82,0.9,0.99,1.78,1.15l1,0.22c1.3,0.27,3.14,0.81,3.14,2.88
				c0,2.22-2.05,3.11-4.11,3.11c-0.53,0-1.14-0.06-1.73-0.22c-0.64-0.19-1.78-0.66-2.51-1.84L292.73,441.26z"/>
			<path class="st6" d="M315.93,434.46v6.1c-0.01,1.1-0.01,2-1.04,2.88c-0.99,0.86-2.26,0.95-2.92,0.95c-0.59,0-1.16-0.07-1.71-0.26
				c-1.15-0.4-1.77-1.23-1.99-1.96c-0.12-0.42-0.12-0.73-0.14-1.93v-5.77h1.81v5.95c0,0.41-0.01,0.81,0.12,1.18
				c0.37,0.93,1.38,1.04,1.96,1.04c0.29,0,1.01-0.01,1.55-0.48c0.53-0.48,0.53-1.03,0.53-1.83v-5.85H315.93z"/>
			<path class="st6" d="M326.05,434.46h1.78v9.67h-1.58l-4.23-6.78l0.11,6.78h-1.77v-9.67h1.63l4.27,6.84L326.05,434.46z"/>
			<path class="st6" d="M332.12,434.46h3.47c0.84,0.01,1.85,0.03,2.86,0.75c1.62,1.14,1.86,3.08,1.86,4.17
				c0,1.66-0.56,3.34-1.99,4.16c-0.96,0.56-1.97,0.58-3.11,0.59h-3.1V434.46z M333.93,436.11v6.4h0.77c1.37,0,1.85-0.07,2.26-0.22
				c0.7-0.27,1.44-0.88,1.44-2.89c0-0.9-0.14-2.38-1.48-3.03c-0.52-0.23-0.81-0.25-2.03-0.26H333.93z"/>
			<path class="st6" d="M345.34,436.08v2.27H350v1.56h-4.66v2.59h5.44v1.63h-7.22v-9.67h6.88v1.62H345.34z"/>
			<path class="st6" d="M354.38,434.46h3.08c1.29,0.01,2.15,0.01,3,0.7c0.6,0.49,1.07,1.26,1.07,2.39c0,1.85-1.36,2.49-1.9,2.66
				l2.15,3.93h-2.07l-1.92-3.59h-1.62v3.59h-1.8V434.46z M356.18,436.02v3.03h0.63c0.62,0,0.85-0.01,1.19-0.03
				c0.4-0.01,1.7-0.08,1.7-1.49c0-0.21-0.01-0.92-0.77-1.3c-0.38-0.19-0.85-0.21-1.92-0.21H356.18z"/>
			<path class="st6" d="M378.33,441.44c-0.12,0.31-0.36,0.88-0.84,1.45c-0.69,0.79-1.77,1.49-3.34,1.49c-2.56,0-4.52-1.88-4.52-5.11
				c0-3.29,2.12-5.06,4.59-5.06c3.02,0,3.73,2.32,3.95,2.99l-1.81,0.48c-0.03-0.18-0.11-0.59-0.36-0.96
				c-0.21-0.3-0.74-0.85-1.74-0.85c-1.58,0-2.67,1.3-2.67,3.37c0,2.21,1.17,3.43,2.69,3.43c0.9,0,1.45-0.44,1.85-0.95
				c0.31-0.42,0.44-0.78,0.51-1L378.33,441.44z"/>
			<path class="st6" d="M385.75,444.38c-1.22,0-2.34-0.34-3.33-1.48c-0.96-1.11-1.29-2.37-1.29-3.59c0-2.96,2-5.1,4.65-5.1
				c2.4,0,4.64,1.78,4.63,5.08C390.39,442.07,388.72,444.38,385.75,444.38z M385.76,435.87c-1.66,0-2.77,1.34-2.77,3.36
				c0,2.18,1.21,3.48,2.81,3.48c1.21,0,2.75-0.88,2.8-3.21C388.64,437.61,387.67,435.87,385.76,435.87z"/>
			<path class="st6" d="M399.49,434.46h1.78v9.67h-1.58l-4.23-6.78l0.11,6.78h-1.77v-9.67h1.63l4.27,6.84L399.49,434.46z"/>
			<path class="st6" d="M411.43,436.11h-2.67v8.03h-1.81v-8.03h-2.62v-1.64h7.1V436.11z"/>
			<path class="st6" d="M414.47,434.46h3.08c1.29,0.01,2.15,0.01,3,0.7c0.6,0.49,1.07,1.26,1.07,2.39c0,1.85-1.36,2.49-1.9,2.66
				l2.15,3.93h-2.07l-1.92-3.59h-1.62v3.59h-1.8V434.46z M416.26,436.02v3.03h0.63c0.62,0,0.85-0.01,1.19-0.03
				c0.4-0.01,1.7-0.08,1.7-1.49c0-0.21-0.01-0.92-0.77-1.3c-0.38-0.19-0.85-0.21-1.92-0.21H416.26z"/>
			<path class="st6" d="M429.13,444.38c-1.22,0-2.34-0.34-3.33-1.48c-0.96-1.11-1.29-2.37-1.29-3.59c0-2.96,2-5.1,4.64-5.1
				c2.4,0,4.64,1.78,4.63,5.08C433.77,442.07,432.1,444.38,429.13,444.38z M429.14,435.87c-1.66,0-2.77,1.34-2.77,3.36
				c0,2.18,1.21,3.48,2.81,3.48c1.21,0,2.75-0.88,2.8-3.21C432.02,437.61,431.04,435.87,429.14,435.87z"/>
			<path class="st6" d="M439,442.49h3.84v1.64h-5.66v-9.69H439V442.49z"/>
		</g>
	</g>
</g>
<g id="Calque_4" class="st0">
	<g class="st1">
		<g>
			<g>
				<path class="st7" d="M127.57,408.54h-15.98l-2.47,8.32h-8.5l14.35-42.57h9.04l14.53,42.57h-8.5L127.57,408.54z M125.46,401.61
					l-5.85-19.6l-5.91,19.6H125.46z"/>
				<path class="st7" d="M151.27,374.29h13.57c5.67,0.06,9.47,0.06,13.2,3.08c2.65,2.17,4.7,5.55,4.7,10.49
					c0,8.14-5.97,10.97-8.38,11.7l9.47,17.3h-9.1l-8.44-15.8h-7.11v15.8h-7.9V374.29z M159.17,381.17v13.32h2.77
					c2.71,0,3.74-0.06,5.25-0.12c1.75-0.06,7.48-0.36,7.48-6.57c0-0.91-0.06-4.04-3.38-5.73c-1.69-0.85-3.74-0.91-8.44-0.91H159.17z
					"/>
				<path class="st7" d="M233.1,404.98c-0.54,1.39-1.57,3.86-3.68,6.39c-3.01,3.5-7.78,6.57-14.71,6.57
					c-11.28,0-19.9-8.26-19.9-22.49c0-14.47,9.35-22.25,20.2-22.25c13.27,0,16.4,10.19,17.37,13.14l-7.96,2.11
					c-0.12-0.78-0.48-2.59-1.57-4.22c-0.9-1.33-3.26-3.74-7.66-3.74c-6.93,0-11.76,5.73-11.76,14.83c0,9.71,5.12,15.07,11.82,15.07
					c3.98,0,6.39-1.93,8.14-4.16c1.39-1.87,1.93-3.44,2.23-4.4L233.1,404.98z"/>
				<path class="st7" d="M280.43,374.29v42.57h-8.02v-19.35h-18.27v19.35h-7.96v-42.57h7.96v16.1h18.27v-16.1H280.43z"/>
				<path class="st7" d="M304.4,381.41v10.01h20.5v6.87h-20.5v11.39h23.94v7.18h-31.78v-42.57h30.27v7.12H304.4z"/>
				<path class="st7" d="M369.41,381.53h-11.76v35.33h-7.96v-35.33h-11.52v-7.24h31.23V381.53z"/>
				<path class="st7" d="M399.74,400.04v16.82h-7.84v-16.82l-14.23-25.75h8.98l9.22,17.67l9.34-17.67h8.86L399.74,400.04z"/>
				<path class="st7" d="M423.77,374.29h14.35c2.35,0,4.82,0,7.3,0.66c4.16,1.15,10.01,4.88,10.01,13.51
					c0,5.67-2.65,11.76-10.25,13.45c-2.35,0.54-4.58,0.54-7.18,0.54h-6.21v14.41h-8.02V374.29z M431.79,381.11v14.77h5.73
					c1.69,0,3.13,0,4.52-0.36c4.94-1.21,5.25-5.73,5.25-7.24c0-3.13-1.39-4.76-2.11-5.42c-1.99-1.69-4.77-1.75-7.36-1.75H431.79z"/>
				<path class="st7" d="M475.45,381.41v10.01h20.5v6.87h-20.5v11.39h23.94v7.18h-31.77v-42.57h30.27v7.12H475.45z"/>
			</g>
		</g>
		<g>
			<polygon class="st7" points="251.54,224.6 275.77,238.45 275.77,266.14 251.54,252.29 			"/>
			<path class="st7" d="M376.73,176c-23.32-13.33-49.86-20.38-76.73-20.38s-53.4,7.05-76.73,20.38l-4.09,2.33v87.82
				c0,19.97,10.76,38.53,28.09,48.45L300,344.74l52.74-30.14c17.33-9.92,28.09-28.48,28.09-48.45v-87.82L376.73,176z M372.71,211.03
				l-24.23,13.85v82.8l-0.01,0.01l-24.23,13.84v-83.08L300,252.29v83.09l-24.23-13.85v-27.69l-24.23-13.85v27.7l-0.19-0.11
				c-14.88-8.5-24.05-24.31-24.05-41.44v-83.09L300,224.6l72.71-41.55V211.03z"/>
		</g>
		<g>
			<g>
				<path class="st7" d="M147.84,441.26c0.23,0.36,0.96,1.47,3,1.47c0.34,0,0.7-0.03,1.04-0.16c0.7-0.29,0.82-0.78,0.82-1.11
					c0-0.62-0.43-0.84-0.73-0.96c-0.22-0.08-0.25-0.1-1.12-0.3l-1.16-0.25c-0.62-0.15-0.92-0.22-1.22-0.34
					c-0.44-0.18-1.63-0.77-1.63-2.37c0-1.84,1.55-3.02,3.82-3.02c2.08,0,3.21,1.03,3.89,1.96l-1.48,1.11
					c-0.33-0.48-0.96-1.44-2.51-1.44c-0.97,0-1.82,0.44-1.82,1.18c0,0.82,0.9,0.99,1.78,1.15l1,0.22c1.3,0.27,3.14,0.81,3.14,2.88
					c0,2.22-2.06,3.11-4.11,3.11c-0.53,0-1.14-0.06-1.73-0.22c-0.64-0.19-1.78-0.66-2.51-1.84L147.84,441.26z"/>
				<path class="st7" d="M167.41,434.46v9.67h-1.77l0.16-7.95l-2.08,7.95h-1.63l-2.1-7.95l0.18,7.95h-1.77v-9.67h2.63l1.89,7.18
					l1.85-7.18H167.41z"/>
				<path class="st7" d="M176.35,442.25h-3.63l-0.56,1.89h-1.93l3.26-9.67h2.06l3.3,9.67h-1.93L176.35,442.25z M175.87,440.67
					l-1.33-4.45l-1.34,4.45H175.87z"/>
				<path class="st7" d="M181.73,434.46h3.08c1.29,0.01,2.15,0.01,3,0.7c0.6,0.49,1.07,1.26,1.07,2.39c0,1.85-1.36,2.49-1.9,2.66
					l2.15,3.93h-2.07l-1.92-3.59h-1.62v3.59h-1.8V434.46z M183.52,436.02v3.03h0.63c0.62,0,0.85-0.01,1.19-0.03
					c0.4-0.01,1.7-0.08,1.7-1.49c0-0.21-0.01-0.92-0.77-1.3c-0.38-0.19-0.85-0.21-1.92-0.21H183.52z"/>
				<path class="st7" d="M198.52,436.11h-2.67v8.03h-1.81v-8.03h-2.62v-1.64h7.1V436.11z"/>
				<path class="st7" d="M215.02,441.44c-0.12,0.31-0.36,0.88-0.84,1.45c-0.69,0.79-1.77,1.49-3.34,1.49
					c-2.56,0-4.52-1.88-4.52-5.11c0-3.29,2.12-5.06,4.59-5.06c3.02,0,3.73,2.32,3.95,2.99l-1.81,0.48
					c-0.03-0.18-0.11-0.59-0.36-0.96c-0.21-0.3-0.74-0.85-1.74-0.85c-1.58,0-2.67,1.3-2.67,3.37c0,2.21,1.16,3.43,2.69,3.43
					c0.9,0,1.45-0.44,1.85-0.95c0.31-0.42,0.44-0.78,0.51-1L215.02,441.44z"/>
				<path class="st7" d="M222.44,444.38c-1.22,0-2.34-0.34-3.33-1.48c-0.96-1.11-1.29-2.37-1.29-3.59c0-2.96,2-5.1,4.65-5.1
					c2.4,0,4.64,1.78,4.63,5.08C227.08,442.07,225.41,444.38,222.44,444.38z M222.45,435.87c-1.66,0-2.77,1.34-2.77,3.36
					c0,2.18,1.21,3.48,2.81,3.48c1.21,0,2.75-0.88,2.8-3.21C225.33,437.61,224.36,435.87,222.45,435.87z"/>
				<path class="st7" d="M236.18,434.46h1.78v9.67h-1.58l-4.23-6.78l0.11,6.78h-1.77v-9.67h1.63l4.28,6.84L236.18,434.46z"/>
				<path class="st7" d="M248.12,436.11h-2.67v8.03h-1.81v-8.03h-2.62v-1.64h7.1V436.11z"/>
				<path class="st7" d="M251.16,434.46h3.08c1.29,0.01,2.15,0.01,3,0.7c0.6,0.49,1.07,1.26,1.07,2.39c0,1.85-1.36,2.49-1.9,2.66
					l2.15,3.93h-2.07l-1.92-3.59h-1.62v3.59h-1.8V434.46z M252.95,436.02v3.03h0.63c0.62,0,0.85-0.01,1.19-0.03
					c0.4-0.01,1.7-0.08,1.7-1.49c0-0.21-0.01-0.92-0.77-1.3c-0.38-0.19-0.85-0.21-1.92-0.21H252.95z"/>
				<path class="st7" d="M266.76,442.25h-3.63l-0.56,1.89h-1.93l3.26-9.67h2.06l3.3,9.67h-1.93L266.76,442.25z M266.28,440.67
					l-1.33-4.45l-1.34,4.45H266.28z"/>
				<path class="st7" d="M279.97,441.44c-0.12,0.31-0.36,0.88-0.83,1.45c-0.69,0.79-1.77,1.49-3.34,1.49
					c-2.56,0-4.52-1.88-4.52-5.11c0-3.29,2.12-5.06,4.59-5.06c3.01,0,3.73,2.32,3.95,2.99l-1.81,0.48
					c-0.03-0.18-0.11-0.59-0.36-0.96c-0.21-0.3-0.74-0.85-1.74-0.85c-1.58,0-2.67,1.3-2.67,3.37c0,2.21,1.16,3.43,2.69,3.43
					c0.9,0,1.45-0.44,1.85-0.95c0.31-0.42,0.44-0.78,0.51-1L279.97,441.44z"/>
				<path class="st7" d="M288.97,436.11h-2.67v8.03h-1.81v-8.03h-2.62v-1.64h7.1V436.11z"/>
				<path class="st7" d="M292.73,441.26c0.23,0.36,0.96,1.47,3,1.47c0.34,0,0.7-0.03,1.04-0.16c0.7-0.29,0.82-0.78,0.82-1.11
					c0-0.62-0.42-0.84-0.73-0.96c-0.22-0.08-0.25-0.1-1.12-0.3l-1.17-0.25c-0.62-0.15-0.92-0.22-1.22-0.34
					c-0.44-0.18-1.63-0.77-1.63-2.37c0-1.84,1.55-3.02,3.82-3.02c2.08,0,3.21,1.03,3.89,1.96l-1.48,1.11
					c-0.33-0.48-0.96-1.44-2.51-1.44c-0.97,0-1.82,0.44-1.82,1.18c0,0.82,0.9,0.99,1.78,1.15l1,0.22c1.3,0.27,3.14,0.81,3.14,2.88
					c0,2.22-2.05,3.11-4.11,3.11c-0.53,0-1.14-0.06-1.73-0.22c-0.64-0.19-1.78-0.66-2.51-1.84L292.73,441.26z"/>
				<path class="st7" d="M315.93,434.46v6.1c-0.01,1.1-0.01,2-1.04,2.88c-0.99,0.86-2.26,0.95-2.92,0.95
					c-0.59,0-1.16-0.07-1.71-0.26c-1.15-0.4-1.77-1.23-1.99-1.96c-0.12-0.42-0.12-0.73-0.14-1.93v-5.77h1.81v5.95
					c0,0.41-0.01,0.81,0.12,1.18c0.37,0.93,1.38,1.04,1.96,1.04c0.29,0,1.01-0.01,1.55-0.48c0.53-0.48,0.53-1.03,0.53-1.83v-5.85
					H315.93z"/>
				<path class="st7" d="M326.05,434.46h1.78v9.67h-1.58l-4.23-6.78l0.11,6.78h-1.77v-9.67h1.63l4.27,6.84L326.05,434.46z"/>
				<path class="st7" d="M332.12,434.46h3.47c0.84,0.01,1.85,0.03,2.86,0.75c1.62,1.14,1.86,3.08,1.86,4.17
					c0,1.66-0.56,3.34-1.99,4.16c-0.96,0.56-1.97,0.58-3.11,0.59h-3.1V434.46z M333.93,436.11v6.4h0.77c1.37,0,1.85-0.07,2.26-0.22
					c0.7-0.27,1.44-0.88,1.44-2.89c0-0.9-0.14-2.38-1.48-3.03c-0.52-0.23-0.81-0.25-2.03-0.26H333.93z"/>
				<path class="st7" d="M345.34,436.08v2.27H350v1.56h-4.66v2.59h5.44v1.63h-7.22v-9.67h6.88v1.62H345.34z"/>
				<path class="st7" d="M354.38,434.46h3.08c1.29,0.01,2.15,0.01,3,0.7c0.6,0.49,1.07,1.26,1.07,2.39c0,1.85-1.36,2.49-1.9,2.66
					l2.15,3.93h-2.07l-1.92-3.59h-1.62v3.59h-1.8V434.46z M356.18,436.02v3.03h0.63c0.62,0,0.85-0.01,1.19-0.03
					c0.4-0.01,1.7-0.08,1.7-1.49c0-0.21-0.01-0.92-0.77-1.3c-0.38-0.19-0.85-0.21-1.92-0.21H356.18z"/>
				<path class="st7" d="M378.33,441.44c-0.12,0.31-0.36,0.88-0.84,1.45c-0.69,0.79-1.77,1.49-3.34,1.49
					c-2.56,0-4.52-1.88-4.52-5.11c0-3.29,2.12-5.06,4.59-5.06c3.02,0,3.73,2.32,3.95,2.99l-1.81,0.48
					c-0.03-0.18-0.11-0.59-0.36-0.96c-0.21-0.3-0.74-0.85-1.74-0.85c-1.58,0-2.67,1.3-2.67,3.37c0,2.21,1.17,3.43,2.69,3.43
					c0.9,0,1.45-0.44,1.85-0.95c0.31-0.42,0.44-0.78,0.51-1L378.33,441.44z"/>
				<path class="st7" d="M385.75,444.38c-1.22,0-2.34-0.34-3.33-1.48c-0.96-1.11-1.29-2.37-1.29-3.59c0-2.96,2-5.1,4.65-5.1
					c2.4,0,4.64,1.78,4.63,5.08C390.39,442.07,388.72,444.38,385.75,444.38z M385.76,435.87c-1.66,0-2.77,1.34-2.77,3.36
					c0,2.18,1.21,3.48,2.81,3.48c1.21,0,2.75-0.88,2.8-3.21C388.64,437.61,387.67,435.87,385.76,435.87z"/>
				<path class="st7" d="M399.49,434.46h1.78v9.67h-1.58l-4.23-6.78l0.11,6.78h-1.77v-9.67h1.63l4.27,6.84L399.49,434.46z"/>
				<path class="st7" d="M411.43,436.11h-2.67v8.03h-1.81v-8.03h-2.62v-1.64h7.1V436.11z"/>
				<path class="st7" d="M414.47,434.46h3.08c1.29,0.01,2.15,0.01,3,0.7c0.6,0.49,1.07,1.26,1.07,2.39c0,1.85-1.36,2.49-1.9,2.66
					l2.15,3.93h-2.07l-1.92-3.59h-1.62v3.59h-1.8V434.46z M416.26,436.02v3.03h0.63c0.62,0,0.85-0.01,1.19-0.03
					c0.4-0.01,1.7-0.08,1.7-1.49c0-0.21-0.01-0.92-0.77-1.3c-0.38-0.19-0.85-0.21-1.92-0.21H416.26z"/>
				<path class="st7" d="M429.13,444.38c-1.22,0-2.34-0.34-3.33-1.48c-0.96-1.11-1.29-2.37-1.29-3.59c0-2.96,2-5.1,4.64-5.1
					c2.4,0,4.64,1.78,4.63,5.08C433.77,442.07,432.1,444.38,429.13,444.38z M429.14,435.87c-1.66,0-2.77,1.34-2.77,3.36
					c0,2.18,1.21,3.48,2.81,3.48c1.21,0,2.75-0.88,2.8-3.21C432.02,437.61,431.04,435.87,429.14,435.87z"/>
				<path class="st7" d="M439,442.49h3.84v1.64h-5.66v-9.69H439V442.49z"/>
			</g>
		</g>
	</g>
</g>
<g id="Calque_5">
	<g>
		<g>
			<g>
				<path class="st3" d="M127.57,408.54h-15.98l-2.47,8.32h-8.5l14.35-42.57h9.04l14.53,42.57h-8.5L127.57,408.54z M125.46,401.61
					l-5.85-19.6l-5.91,19.6H125.46z"/>
				<path class="st3" d="M151.27,374.29h13.57c5.67,0.06,9.47,0.06,13.2,3.08c2.65,2.17,4.7,5.55,4.7,10.49
					c0,8.14-5.97,10.97-8.38,11.7l9.47,17.3h-9.1l-8.44-15.8h-7.11v15.8h-7.9V374.29z M159.17,381.17v13.32h2.77
					c2.71,0,3.74-0.06,5.25-0.12c1.75-0.06,7.48-0.36,7.48-6.57c0-0.91-0.06-4.04-3.38-5.73c-1.69-0.85-3.74-0.91-8.44-0.91H159.17z
					"/>
				<path class="st3" d="M233.1,404.98c-0.54,1.39-1.57,3.86-3.68,6.39c-3.01,3.5-7.78,6.57-14.71,6.57
					c-11.28,0-19.9-8.26-19.9-22.49c0-14.47,9.35-22.25,20.2-22.25c13.27,0,16.4,10.19,17.37,13.14l-7.96,2.11
					c-0.12-0.78-0.48-2.59-1.57-4.22c-0.9-1.33-3.26-3.74-7.66-3.74c-6.93,0-11.76,5.73-11.76,14.83c0,9.71,5.12,15.07,11.82,15.07
					c3.98,0,6.39-1.93,8.14-4.16c1.39-1.87,1.93-3.44,2.23-4.4L233.1,404.98z"/>
				<path class="st3" d="M280.43,374.29v42.57h-8.02v-19.35h-18.27v19.35h-7.96v-42.57h7.96v16.1h18.27v-16.1H280.43z"/>
				<path class="st3" d="M304.4,381.41v10.01h20.5v6.87h-20.5v11.39h23.94v7.18h-31.78v-42.57h30.27v7.12H304.4z"/>
				<path class="st3" d="M369.41,381.53h-11.76v35.33h-7.96v-35.33h-11.52v-7.24h31.23V381.53z"/>
				<path class="st3" d="M399.74,400.04v16.82h-7.84v-16.82l-14.23-25.75h8.98l9.22,17.67l9.34-17.67h8.86L399.74,400.04z"/>
				<path class="st3" d="M423.77,374.29h14.35c2.35,0,4.82,0,7.3,0.66c4.16,1.15,10.01,4.88,10.01,13.51
					c0,5.67-2.65,11.76-10.25,13.45c-2.35,0.54-4.58,0.54-7.18,0.54h-6.21v14.41h-8.02V374.29z M431.79,381.11v14.77h5.73
					c1.69,0,3.13,0,4.52-0.36c4.94-1.21,5.25-5.73,5.25-7.24c0-3.13-1.39-4.76-2.11-5.42c-1.99-1.69-4.77-1.75-7.36-1.75H431.79z"/>
				<path class="st3" d="M475.45,381.41v10.01h20.5v6.87h-20.5v11.39h23.94v7.18h-31.77v-42.57h30.27v7.12H475.45z"/>
			</g>
		</g>
		<g>
			<polygon class="st3" points="251.54,224.6 275.77,238.45 275.77,266.14 251.54,252.29 			"/>
			<path class="st3" d="M376.73,176c-23.32-13.33-49.86-20.38-76.73-20.38s-53.4,7.05-76.73,20.38l-4.09,2.33v87.82
				c0,19.97,10.76,38.53,28.09,48.45L300,344.74l52.74-30.14c17.33-9.92,28.09-28.48,28.09-48.45v-87.82L376.73,176z M372.71,211.03
				l-24.23,13.85v82.8l-0.01,0.01l-24.23,13.84v-83.08L300,252.29v83.09l-24.23-13.85v-27.69l-24.23-13.85v27.7l-0.19-0.11
				c-14.88-8.5-24.05-24.31-24.05-41.44v-83.09L300,224.6l72.71-41.55V211.03z"/>
		</g>
		<g>
			<g>
				<path class="st3" d="M147.84,441.26c0.23,0.36,0.96,1.47,3,1.47c0.34,0,0.7-0.03,1.04-0.16c0.7-0.29,0.82-0.78,0.82-1.11
					c0-0.62-0.43-0.84-0.73-0.96c-0.22-0.08-0.25-0.1-1.12-0.3l-1.16-0.25c-0.62-0.15-0.92-0.22-1.22-0.34
					c-0.44-0.18-1.63-0.77-1.63-2.37c0-1.84,1.55-3.02,3.82-3.02c2.08,0,3.21,1.03,3.89,1.96l-1.48,1.11
					c-0.33-0.48-0.96-1.44-2.51-1.44c-0.97,0-1.82,0.44-1.82,1.18c0,0.82,0.9,0.99,1.78,1.15l1,0.22c1.3,0.27,3.14,0.81,3.14,2.88
					c0,2.22-2.06,3.11-4.11,3.11c-0.53,0-1.14-0.06-1.73-0.22c-0.64-0.19-1.78-0.66-2.51-1.84L147.84,441.26z"/>
				<path class="st3" d="M167.41,434.46v9.67h-1.77l0.16-7.95l-2.08,7.95h-1.63l-2.1-7.95l0.18,7.95h-1.77v-9.67h2.63l1.89,7.18
					l1.85-7.18H167.41z"/>
				<path class="st3" d="M176.35,442.25h-3.63l-0.56,1.89h-1.93l3.26-9.67h2.06l3.3,9.67h-1.93L176.35,442.25z M175.87,440.67
					l-1.33-4.45l-1.34,4.45H175.87z"/>
				<path class="st3" d="M181.73,434.46h3.08c1.29,0.01,2.15,0.01,3,0.7c0.6,0.49,1.07,1.26,1.07,2.39c0,1.85-1.36,2.49-1.9,2.66
					l2.15,3.93h-2.07l-1.92-3.59h-1.62v3.59h-1.8V434.46z M183.52,436.02v3.03h0.63c0.62,0,0.85-0.01,1.19-0.03
					c0.4-0.01,1.7-0.08,1.7-1.49c0-0.21-0.01-0.92-0.77-1.3c-0.38-0.19-0.85-0.21-1.92-0.21H183.52z"/>
				<path class="st3" d="M198.52,436.11h-2.67v8.03h-1.81v-8.03h-2.62v-1.64h7.1V436.11z"/>
				<path class="st3" d="M215.02,441.44c-0.12,0.31-0.36,0.88-0.84,1.45c-0.69,0.79-1.77,1.49-3.34,1.49
					c-2.56,0-4.52-1.88-4.52-5.11c0-3.29,2.12-5.06,4.59-5.06c3.02,0,3.73,2.32,3.95,2.99l-1.81,0.48
					c-0.03-0.18-0.11-0.59-0.36-0.96c-0.21-0.3-0.74-0.85-1.74-0.85c-1.58,0-2.67,1.3-2.67,3.37c0,2.21,1.16,3.43,2.69,3.43
					c0.9,0,1.45-0.44,1.85-0.95c0.31-0.42,0.44-0.78,0.51-1L215.02,441.44z"/>
				<path class="st3" d="M222.44,444.38c-1.22,0-2.34-0.34-3.33-1.48c-0.96-1.11-1.29-2.37-1.29-3.59c0-2.96,2-5.1,4.65-5.1
					c2.4,0,4.64,1.78,4.63,5.08C227.08,442.07,225.41,444.38,222.44,444.38z M222.45,435.87c-1.66,0-2.77,1.34-2.77,3.36
					c0,2.18,1.21,3.48,2.81,3.48c1.21,0,2.75-0.88,2.8-3.21C225.33,437.61,224.36,435.87,222.45,435.87z"/>
				<path class="st3" d="M236.18,434.46h1.78v9.67h-1.58l-4.23-6.78l0.11,6.78h-1.77v-9.67h1.63l4.28,6.84L236.18,434.46z"/>
				<path class="st3" d="M248.12,436.11h-2.67v8.03h-1.81v-8.03h-2.62v-1.64h7.1V436.11z"/>
				<path class="st3" d="M251.16,434.46h3.08c1.29,0.01,2.15,0.01,3,0.7c0.6,0.49,1.07,1.26,1.07,2.39c0,1.85-1.36,2.49-1.9,2.66
					l2.15,3.93h-2.07l-1.92-3.59h-1.62v3.59h-1.8V434.46z M252.95,436.02v3.03h0.63c0.62,0,0.85-0.01,1.19-0.03
					c0.4-0.01,1.7-0.08,1.7-1.49c0-0.21-0.01-0.92-0.77-1.3c-0.38-0.19-0.85-0.21-1.92-0.21H252.95z"/>
				<path class="st3" d="M266.76,442.25h-3.63l-0.56,1.89h-1.93l3.26-9.67h2.06l3.3,9.67h-1.93L266.76,442.25z M266.28,440.67
					l-1.33-4.45l-1.34,4.45H266.28z"/>
				<path class="st3" d="M279.97,441.44c-0.12,0.31-0.36,0.88-0.83,1.45c-0.69,0.79-1.77,1.49-3.34,1.49
					c-2.56,0-4.52-1.88-4.52-5.11c0-3.29,2.12-5.06,4.59-5.06c3.01,0,3.73,2.32,3.95,2.99l-1.81,0.48
					c-0.03-0.18-0.11-0.59-0.36-0.96c-0.21-0.3-0.74-0.85-1.74-0.85c-1.58,0-2.67,1.3-2.67,3.37c0,2.21,1.16,3.43,2.69,3.43
					c0.9,0,1.45-0.44,1.85-0.95c0.31-0.42,0.44-0.78,0.51-1L279.97,441.44z"/>
				<path class="st3" d="M288.97,436.11h-2.67v8.03h-1.81v-8.03h-2.62v-1.64h7.1V436.11z"/>
				<path class="st3" d="M292.73,441.26c0.23,0.36,0.96,1.47,3,1.47c0.34,0,0.7-0.03,1.04-0.16c0.7-0.29,0.82-0.78,0.82-1.11
					c0-0.62-0.42-0.84-0.73-0.96c-0.22-0.08-0.25-0.1-1.12-0.3l-1.17-0.25c-0.62-0.15-0.92-0.22-1.22-0.34
					c-0.44-0.18-1.63-0.77-1.63-2.37c0-1.84,1.55-3.02,3.82-3.02c2.08,0,3.21,1.03,3.89,1.96l-1.48,1.11
					c-0.33-0.48-0.96-1.44-2.51-1.44c-0.97,0-1.82,0.44-1.82,1.18c0,0.82,0.9,0.99,1.78,1.15l1,0.22c1.3,0.27,3.14,0.81,3.14,2.88
					c0,2.22-2.05,3.11-4.11,3.11c-0.53,0-1.14-0.06-1.73-0.22c-0.64-0.19-1.78-0.66-2.51-1.84L292.73,441.26z"/>
				<path class="st3" d="M315.93,434.46v6.1c-0.01,1.1-0.01,2-1.04,2.88c-0.99,0.86-2.26,0.95-2.92,0.95
					c-0.59,0-1.16-0.07-1.71-0.26c-1.15-0.4-1.77-1.23-1.99-1.96c-0.12-0.42-0.12-0.73-0.14-1.93v-5.77h1.81v5.95
					c0,0.41-0.01,0.81,0.12,1.18c0.37,0.93,1.38,1.04,1.96,1.04c0.29,0,1.01-0.01,1.55-0.48c0.53-0.48,0.53-1.03,0.53-1.83v-5.85
					H315.93z"/>
				<path class="st3" d="M326.05,434.46h1.78v9.67h-1.58l-4.23-6.78l0.11,6.78h-1.77v-9.67h1.63l4.27,6.84L326.05,434.46z"/>
				<path class="st3" d="M332.12,434.46h3.47c0.84,0.01,1.85,0.03,2.86,0.75c1.62,1.14,1.86,3.08,1.86,4.17
					c0,1.66-0.56,3.34-1.99,4.16c-0.96,0.56-1.97,0.58-3.11,0.59h-3.1V434.46z M333.93,436.11v6.4h0.77c1.37,0,1.85-0.07,2.26-0.22
					c0.7-0.27,1.44-0.88,1.44-2.89c0-0.9-0.14-2.38-1.48-3.03c-0.52-0.23-0.81-0.25-2.03-0.26H333.93z"/>
				<path class="st3" d="M345.34,436.08v2.27H350v1.56h-4.66v2.59h5.44v1.63h-7.22v-9.67h6.88v1.62H345.34z"/>
				<path class="st3" d="M354.38,434.46h3.08c1.29,0.01,2.15,0.01,3,0.7c0.6,0.49,1.07,1.26,1.07,2.39c0,1.85-1.36,2.49-1.9,2.66
					l2.15,3.93h-2.07l-1.92-3.59h-1.62v3.59h-1.8V434.46z M356.18,436.02v3.03h0.63c0.62,0,0.85-0.01,1.19-0.03
					c0.4-0.01,1.7-0.08,1.7-1.49c0-0.21-0.01-0.92-0.77-1.3c-0.38-0.19-0.85-0.21-1.92-0.21H356.18z"/>
				<path class="st3" d="M378.33,441.44c-0.12,0.31-0.36,0.88-0.84,1.45c-0.69,0.79-1.77,1.49-3.34,1.49
					c-2.56,0-4.52-1.88-4.52-5.11c0-3.29,2.12-5.06,4.59-5.06c3.02,0,3.73,2.32,3.95,2.99l-1.81,0.48
					c-0.03-0.18-0.11-0.59-0.36-0.96c-0.21-0.3-0.74-0.85-1.74-0.85c-1.58,0-2.67,1.3-2.67,3.37c0,2.21,1.17,3.43,2.69,3.43
					c0.9,0,1.45-0.44,1.85-0.95c0.31-0.42,0.44-0.78,0.51-1L378.33,441.44z"/>
				<path class="st3" d="M385.75,444.38c-1.22,0-2.34-0.34-3.33-1.48c-0.96-1.11-1.29-2.37-1.29-3.59c0-2.96,2-5.1,4.65-5.1
					c2.4,0,4.64,1.78,4.63,5.08C390.39,442.07,388.72,444.38,385.75,444.38z M385.76,435.87c-1.66,0-2.77,1.34-2.77,3.36
					c0,2.18,1.21,3.48,2.81,3.48c1.21,0,2.75-0.88,2.8-3.21C388.64,437.61,387.67,435.87,385.76,435.87z"/>
				<path class="st3" d="M399.49,434.46h1.78v9.67h-1.58l-4.23-6.78l0.11,6.78h-1.77v-9.67h1.63l4.27,6.84L399.49,434.46z"/>
				<path class="st3" d="M411.43,436.11h-2.67v8.03h-1.81v-8.03h-2.62v-1.64h7.1V436.11z"/>
				<path class="st3" d="M414.47,434.46h3.08c1.29,0.01,2.15,0.01,3,0.7c0.6,0.49,1.07,1.26,1.07,2.39c0,1.85-1.36,2.49-1.9,2.66
					l2.15,3.93h-2.07l-1.92-3.59h-1.62v3.59h-1.8V434.46z M416.26,436.02v3.03h0.63c0.62,0,0.85-0.01,1.19-0.03
					c0.4-0.01,1.7-0.08,1.7-1.49c0-0.21-0.01-0.92-0.77-1.3c-0.38-0.19-0.85-0.21-1.92-0.21H416.26z"/>
				<path class="st3" d="M429.13,444.38c-1.22,0-2.34-0.34-3.33-1.48c-0.96-1.11-1.29-2.37-1.29-3.59c0-2.96,2-5.1,4.64-5.1
					c2.4,0,4.64,1.78,4.63,5.08C433.77,442.07,432.1,444.38,429.13,444.38z M429.14,435.87c-1.66,0-2.77,1.34-2.77,3.36
					c0,2.18,1.21,3.48,2.81,3.48c1.21,0,2.75-0.88,2.8-3.21C432.02,437.61,431.04,435.87,429.14,435.87z"/>
				<path class="st3" d="M439,442.49h3.84v1.64h-5.66v-9.69H439V442.49z"/>
			</g>
		</g>
	</g>
</g>
</svg>
