<?xml version="1.0" encoding="utf-8"?>
<!-- Generator: Adobe Illustrator 23.0.3, SVG Export Plug-In . SVG Version: 6.00 Build 0)  -->
<svg version="1.1" id="Calque_1" xmlns="http://www.w3.org/2000/svg" xmlns:xlink="http://www.w3.org/1999/xlink" x="0px" y="0px"
	 viewBox="0 0 256 256" style="enable-background:new 0 0 256 256;" xml:space="preserve">
<style type="text/css">
	.st0{fill:#10CFC9;}
</style>
<g>
	<g>
		<polygon class="st0" points="62.4,93.37 95.19,112.12 95.19,149.6 62.4,130.86 		"/>
		<path class="st0" d="M231.86,27.59C200.29,9.54,164.37,0,127.99,0S55.71,9.54,24.13,27.59l-5.54,3.17v118.86
			c0,27.03,14.56,52.16,38.02,65.6L127.99,256l71.39-40.79c23.46-13.44,38.02-38.57,38.02-65.6V30.75L231.86,27.59z M226.42,75.01
			l-32.8,18.75v112.09l-0.01,0.01l-32.8,18.73V112.12l-32.81,18.73v112.49l-32.8-18.75v-37.48l-32.8-18.76v37.51l-0.26-0.16
			C42,194.21,29.58,172.79,29.58,149.6V37.13l98.41,56.24l98.42-56.24V75.01z"/>
	</g>
</g>
</svg>
